<svg xmlns="http://www.w3.org/2000/svg" viewBox="0 0 920 220" width="100%" height="100%">
  <defs>
    <style>
      .header-title { font-family: 'Pretendard', 'Apple SD Gothic Neo', 'Malgun Gothic', sans-serif; font-weight: 800; font-size: 19px; fill: #000000; }
      .box { fill: #ffffff; stroke: #000000; stroke-width: 2; rx: 10px; }
      .step-num { font-family: 'Pretendard', 'Apple SD Gothic Neo', 'Malgun Gothic', sans-serif; font-weight: 800; font-size: 11px; fill: #666666; text-anchor: middle; }
      .title { font-family: 'Pretendard', 'Apple SD Gothic Neo', 'Malgun Gothic', sans-serif; font-weight: 800; font-size: 15px; fill: #000000; text-anchor: middle; }
      .sub { font-family: 'Pretendard', 'Apple SD Gothic Neo', 'Malgun Gothic', sans-serif; font-weight: 500; font-size: 12px; fill: #444444; text-anchor: middle; }
      .arrow { stroke: #000000; stroke-width: 2; fill: none; stroke-linecap: round; stroke-linejoin: round; }
      .arrow-head { fill: #000000; }
    </style>
  </defs>

  <rect width="920" height="220" fill="#ffffff"/>

  <!-- Main Feature Header -->
  <text x="15" y="32" class="header-title">🚶‍♂️ 실시간 길찾기 &amp; 경로 안내 처리 흐름 (Route Finding Flow)</text>

  <!-- Step 1 -->
  <g transform="translate(15, 60)">
    <rect width="180" height="135" class="box"/>
    <text x="90" y="30" class="step-num">STEP 01</text>
    <text x="90" y="55" class="title">출발/도착지 지정</text>
    <text x="90" y="85" class="sub">• 장소 오버레이 버튼 클릭</text>
    <text x="90" y="108" class="sub">• 지도 좌표 직접 핀 찍기</text>
  </g>

  <!-- Arrow 1 -->
  <g transform="translate(205, 128)">
    <line x1="0" y1="0" x2="20" y2="0" class="arrow"/>
    <polygon points="20,-4 28,0 20,4" class="arrow-head"/>
  </g>

  <!-- Step 2 -->
  <g transform="translate(243, 60)">
    <rect width="190" height="135" class="box"/>
    <text x="95" y="30" class="step-num">STEP 02</text>
    <text x="95" y="55" class="title">비동기 요청 제어</text>
    <text x="95" y="85" class="sub">• 250ms 디바운스 타이머</text>
    <text x="95" y="108" class="sub">• AbortController 이전 취소</text>
  </g>

  <!-- Arrow 2 -->
  <g transform="translate(443, 128)">
    <line x1="0" y1="0" x2="20" y2="0" class="arrow"/>
    <polygon points="20,-4 28,0 20,4" class="arrow-head"/>
  </g>

  <!-- Step 3 -->
  <g transform="translate(473, 60)">
    <rect width="190" height="135" class="box"/>
    <text x="95" y="30" class="step-num">STEP 03</text>
    <text x="95" y="55" class="title">경로 데이터 파싱</text>
    <text x="95" y="85" class="sub">• RouteAPI.getRoute()</text>
    <text x="95" y="108" class="sub">• 좌표 변환 (toMapPath)</text>
  </g>

  <!-- Arrow 3 -->
  <g transform="translate(673, 128)">
    <line x1="0" y1="0" x2="20" y2="0" class="arrow"/>
    <polygon points="20,-4 28,0 20,4" class="arrow-head"/>
  </g>

  <!-- Step 4 -->
  <g transform="translate(703, 60)">
    <rect width="190" height="135" class="box"/>
    <text x="95" y="30" class="step-num">STEP 04</text>
    <text x="95" y="55" class="title">Polyline &amp; 범례 표출</text>
    <text x="95" y="85" class="sub">• 지도 뷰포트 자동 이동</text>
    <text x="95" y="108" class="sub">• 대중교통 환승선 색상 구분</text>
  </g>
</svg>
